<svg width="204" height="46" viewBox="0 0 204 46" fill="none" xmlns="http://www.w3.org/2000/svg">
<path d="M2.22 34V13.6H15.42V17.2H6.36V21.97H13.62V25.51H6.36V30.4H15.42V34H2.22ZM30.4413 34H18.8313V13.6H22.9713V30.34H30.4413V34ZM32.9817 34V13.6H46.1817V17.2H37.1217V21.97H44.3817V25.51H37.1217V30.4H46.1817V34H32.9817ZM62.3766 33.67C60.2566 34.13 58.3466 34.36 56.6466 34.36C54.9466 34.36 53.5866 34.15 52.5666 33.73C51.5466 33.31 50.7466 32.64 50.1666 31.72C49.5866 30.8 49.1866 29.72 48.9666 28.48C48.7466 27.24 48.6366 25.68 48.6366 23.8C48.6366 19.86 49.1866 17.12 50.2866 15.58C51.4066 14.02 53.4566 13.24 56.4366 13.24C58.1566 13.24 60.1466 13.51 62.4066 14.05L62.2866 17.35C60.3066 17.05 58.6566 16.9 57.3366 16.9C56.0366 16.9 55.1066 17.08 54.5466 17.44C53.9866 17.78 53.5666 18.44 53.2866 19.42C53.0266 20.4 52.8966 22.07 52.8966 24.43C52.8966 26.79 53.1666 28.43 53.7066 29.35C54.2666 30.25 55.3666 30.7 57.0066 30.7C58.6666 30.7 60.4266 30.56 62.2866 30.28L62.3766 33.67ZM63.9056 17.26V13.6H78.9056V17.26H73.5056V34H69.3656V17.26H63.9056ZM85.6666 27.16V34H81.5266V13.6H89.4466C94.2466 13.6 96.6466 15.84 96.6466 20.32C96.6466 22.98 95.6466 24.94 93.6466 26.2L96.5566 34H92.0266L89.6566 27.16H85.6666ZM89.5066 23.62C90.4866 23.62 91.2166 23.32 91.6966 22.72C92.1766 22.12 92.4166 21.33 92.4166 20.35C92.4166 19.37 92.1566 18.59 91.6366 18.01C91.1366 17.43 90.4066 17.14 89.4466 17.14H85.6666V23.62H89.5066ZM104.36 29.2C104.96 30.24 106.07 30.76 107.69 30.76C109.31 30.76 110.41 30.24 110.99 29.2C111.59 28.14 111.89 26.38 111.89 23.92C111.89 21.44 111.59 19.64 110.99 18.52C110.39 17.4 109.29 16.84 107.69 16.84C106.09 16.84 104.99 17.4 104.39 18.52C103.79 19.64 103.49 21.44 103.49 23.92C103.49 26.38 103.78 28.14 104.36 29.2ZM114.23 31.84C112.97 33.52 110.79 34.36 107.69 34.36C104.59 34.36 102.4 33.52 101.12 31.84C99.8602 30.14 99.2302 27.49 99.2302 23.89C99.2302 20.29 99.8602 17.62 101.12 15.88C102.4 14.12 104.59 13.24 107.69 13.24C110.79 13.24 112.97 14.12 114.23 15.88C115.51 17.62 116.15 20.29 116.15 23.89C116.15 27.49 115.51 30.14 114.23 31.84ZM125.76 14.95C122.76 14.95 121.26 16.08 121.26 18.34C121.26 19.6 121.6 20.47 122.28 20.95C122.98 21.41 124.38 21.88 126.48 22.36C128.6 22.82 130.1 23.43 130.98 24.19C131.86 24.93 132.3 26.16 132.3 27.88C132.3 32.14 130.09 34.27 125.67 34.27C124.21 34.27 122.38 34.1 120.18 33.76L119.1 33.61L119.34 31.69C122.06 32.05 124.13 32.23 125.55 32.23C128.51 32.23 129.99 30.84 129.99 28.06C129.99 26.94 129.66 26.14 129 25.66C128.36 25.16 127.15 24.74 125.37 24.4C123.03 23.9 121.37 23.26 120.39 22.48C119.41 21.68 118.92 20.35 118.92 18.49C118.92 14.77 121.15 12.91 125.61 12.91C127.07 12.91 128.82 13.06 130.86 13.36L131.88 13.51L131.67 15.46C128.89 15.12 126.92 14.95 125.76 14.95ZM134.13 15.31V13.24H149.13V15.31H142.8V34H140.52V15.31H134.13ZM153.025 23.71C153.025 26.75 153.425 28.94 154.225 30.28C155.025 31.6 156.565 32.26 158.845 32.26C161.145 32.26 162.685 31.61 163.465 30.31C164.265 29.01 164.665 26.83 164.665 23.77C164.665 20.71 164.255 18.48 163.435 17.08C162.615 15.68 161.075 14.98 158.815 14.98C156.575 14.98 155.045 15.68 154.225 17.08C153.425 18.46 153.025 20.67 153.025 23.71ZM167.065 23.77C167.065 27.47 166.475 30.15 165.295 31.81C164.115 33.47 161.965 34.3 158.845 34.3C155.745 34.3 153.605 33.45 152.425 31.75C151.245 30.05 150.655 27.38 150.655 23.74C150.655 20.08 151.255 17.37 152.455 15.61C153.655 13.83 155.785 12.94 158.845 12.94C161.905 12.94 164.035 13.82 165.235 15.58C166.455 17.34 167.065 20.07 167.065 23.77ZM173.61 26.05V34H171.3V13.24H178.98C181.18 13.24 182.83 13.75 183.93 14.77C185.05 15.79 185.61 17.38 185.61 19.54C185.61 22.74 184.34 24.75 181.8 25.57L185.79 34H183.24L179.49 26.05H173.61ZM179.01 24.01C181.83 24.01 183.24 22.56 183.24 19.66C183.24 16.74 181.82 15.28 178.98 15.28H173.61V24.01H179.01ZM189.786 34V13.24H202.416V15.28H192.096V22.45H200.616V24.46H192.096V31.96H202.416V34H189.786Z" fill="white"/>
</svg>
